<?xml version="1.0" encoding="UTF-8" standalone="no"?>
<svg
   xmlns:dc="http://purl.org/dc/elements/1.1/"
   xmlns:cc="http://creativecommons.org/ns#"
   xmlns:rdf="http://www.w3.org/1999/02/22-rdf-syntax-ns#"
   xmlns:svg="http://www.w3.org/2000/svg"
   xmlns="http://www.w3.org/2000/svg"
   xmlns:sodipodi="http://sodipodi.sourceforge.net/DTD/sodipodi-0.dtd"
   xmlns:inkscape="http://www.inkscape.org/namespaces/inkscape"
   version="1.1"
   x="0px"
   y="0px"
   viewBox="0 0 4096 4096"
   enable-background="new 0 0 400 84"
   xml:space="preserve"
   id="svg16"
   sodipodi:docname="asus-logo.svg"
   width="4096"
   height="4096"
   inkscape:export-filename="G:\Users\suitedoalex\sites\asus-logo-0.png"
   inkscape:export-xdpi="96"
   inkscape:export-ydpi="96"
   inkscape:version="0.92.2 (5c3e80d, 2017-08-06)"><metadata
     id="metadata22"><rdf:RDF><cc:Work
         rdf:about=""><dc:format>image/svg+xml</dc:format><dc:type
           rdf:resource="http://purl.org/dc/dcmitype/StillImage" /><dc:title></dc:title></cc:Work></rdf:RDF></metadata><defs
     id="defs20" /><sodipodi:namedview
     pagecolor="#ffffff"
     bordercolor="#666666"
     borderopacity="1"
     objecttolerance="10"
     gridtolerance="10"
     guidetolerance="10"
     inkscape:pageopacity="0"
     inkscape:pageshadow="2"
     inkscape:window-width="1600"
     inkscape:window-height="837"
     id="namedview18"
     showgrid="false"
     inkscape:zoom="0.104375"
     inkscape:cx="1378.0404"
     inkscape:cy="1890.6825"
     inkscape:window-x="-8"
     inkscape:window-y="-8"
     inkscape:window-maximized="1"
     inkscape:current-layer="svg16" /><g
     class="asus_log_svg"
     id="g14"
     transform="matrix(9.1437126,0,0,9.1437126,219.25748,1663.9641)"
     inkscape:export-filename="G:\Users\suitedoalex\sites\asus-logo-4.png"
     inkscape:export-xdpi="10.499018"
     inkscape:export-ydpi="10.499018"><path
       d="m 195.2,0.7 h -70.5 c -16.4,0 -23.6,10.2 -25.3,20 V 0.7 H 60.3 c -5.5,0 -8.1,1.7 -10.7,5.5 L 38.8,21.8 h 156.4 z"
       id="path2"
       inkscape:connector-curvature="0" /><polygon
       points="38.2,24 0,83.3 28.1,83.3 63.3,26.5 "
       id="polygon4" /><rect
       x="199.39999"
       y="0.69999999"
       width="23.1"
       height="21.1"
       id="rect6" /><path
       d="M 369.3,33.7 297,29.4 c 0,11.1 7.3,18.5 19.7,19.5 l 51.5,4 c 4,0.3 6.4,1.3 6.4,4.6 0,3.1 -2.8,4.3 -8.6,4.3 h -70.2 v 21.5 h 71.7 c 22.6,0 32.5,-7.9 32.5,-25.9 0,-16.2 -8.9,-22.3 -30.7,-23.7 z"
       id="path8"
       inkscape:connector-curvature="0" /><path
       d="m 296,29.4 -22.8,-1.3 v 24.3 c 0,7.6 -3.8,9.9 -17,9.9 H 238 c -10.9,0 -15.5,-3.1 -15.5,-9.9 V 25.8 l -23.1,-1.7 v 30.2 h -0.5 c -1.3,-8.8 -4.6,-19 -26.6,-20.5 L 100,29 c 0,11.1 7.9,17.7 20.3,19 l 50.4,5.1 c 4,0.3 6.9,1.5 6.9,4.8 0,3.6 -3,4 -7.6,4 H 99.1 V 29 L 76,27.5 v 55.8 h 94.1 c 21,0 27.7,-10.9 28.7,-20 h 0.5 c 2.6,14.4 15.2,20 36.5,20 h 23.5 c 24.9,0 36.7,-7.6 36.7,-25.4 z"
       id="path10"
       inkscape:connector-curvature="0" /><path
       d="M 398.4,21.8 V 0.7 h -77.6 c -16.2,0 -23.5,10 -24.7,19.7 0,0.1 0,0.2 0,0.3 V 0.7 H 273.3 V 21.8 H 296 Z"
       id="path12"
       inkscape:connector-curvature="0" /></g></svg>