<?xml version="1.0" encoding="UTF-8" standalone="no"?>
<svg
   xmlns:dc="http://purl.org/dc/elements/1.1/"
   xmlns:cc="http://creativecommons.org/ns#"
   xmlns:rdf="http://www.w3.org/1999/02/22-rdf-syntax-ns#"
   xmlns:svg="http://www.w3.org/2000/svg"
   xmlns="http://www.w3.org/2000/svg"
   xmlns:sodipodi="http://sodipodi.sourceforge.net/DTD/sodipodi-0.dtd"
   xmlns:inkscape="http://www.inkscape.org/namespaces/inkscape"
   version="1.1"
   id="Layer_1"
   x="0px"
   y="0px"
   viewBox="0 0 700 700"
   xml:space="preserve"
   sodipodi:docname="acer-logo.svg"
   width="700"
   height="700"
   inkscape:export-filename="G:\Users\suitedoalex\sites\acer-logo-0.png"
   inkscape:export-xdpi="561.73999"
   inkscape:export-ydpi="561.73999"
   inkscape:version="0.92.4 (5da689c313, 2019-01-14)"><metadata
   id="metadata9"><rdf:RDF><cc:Work
       rdf:about=""><dc:format>image/svg+xml</dc:format><dc:type
         rdf:resource="http://purl.org/dc/dcmitype/StillImage" /><dc:title></dc:title></cc:Work></rdf:RDF></metadata><defs
   id="defs7" /><sodipodi:namedview
   pagecolor="#ffffff"
   bordercolor="#666666"
   borderopacity="1"
   objecttolerance="10"
   gridtolerance="10"
   guidetolerance="10"
   inkscape:pageopacity="0"
   inkscape:pageshadow="2"
   inkscape:window-width="1600"
   inkscape:window-height="837"
   id="namedview5"
   showgrid="false"
   inkscape:zoom="0.59043416"
   inkscape:cx="128.27471"
   inkscape:cy="361.16775"
   inkscape:window-x="-8"
   inkscape:window-y="-8"
   inkscape:window-maximized="1"
   inkscape:current-layer="Layer_1" />
<path
   d="m 639.0913,286.20085 c -2.05803,-2.74405 -4.11607,-4.80209 -14.40626,-5.4881 -2.74404,0 -10.97619,-0.68601 -25.38245,-0.68601 -37.73068,0 -63.79915,11.66221 -76.83338,34.30061 3.43006,-22.6384 -18.52233,-34.30061 -66.5432,-34.30061 -56.25301,0 -91.92565,22.6384 -106.33191,68.60123 -5.48809,17.15031 -5.48809,30.87055 -1.37202,41.84675 h -13.72025 c -10.29018,0.68601 -24.01043,1.37202 -32.92859,1.37202 -20.58037,0 -33.6146,-3.43006 -38.41669,-10.29018 -4.11607,-6.17411 -4.11607,-17.83632 1.37203,-34.98663 8.91816,-28.12649 30.18454,-40.47472 64.48516,-40.47472 17.83632,0 34.98662,2.05803 34.98662,2.05803 v 0 c 2.05804,0 3.43007,-2.74405 3.43007,-4.80208 l -0.68602,-2.05804 -1.37202,-9.60417 c -0.68601,-6.17411 -5.4881,-9.60418 -13.72025,-10.97619 -7.54613,-0.68602 -13.72024,-0.68602 -21.95239,-0.68602 0,0 0,0 -0.68601,0 -44.59081,0 -76.14737,15.09227 -93.29768,43.9048 6.17411,-29.49853 -14.40626,-43.9048 -61.74111,-43.9048 -26.75448,0 -45.96282,0.68602 -56.93902,2.05804 -8.91816,1.37203 -14.40626,4.80209 -16.46429,10.97619 l -4.116077,12.34822 c -0.686013,2.05804 0.686012,3.43006 3.430061,3.43006 v 0 c 2.058036,0 10.290186,-1.37202 24.010436,-2.05803 18.52233,-1.37203 31.55656,-2.05804 40.47472,-2.05804 26.06847,0 37.73068,6.86012 33.6146,19.89436 -0.68601,2.74405 -2.74405,4.80208 -6.17411,5.4881 -24.69644,4.11608 -44.5908,6.86013 -58.99705,8.91817 -41.160744,5.4881 -65.171175,17.83632 -71.345285,38.41669 -8.91816,28.1265 13.034233,41.84675 65.857185,41.84675 26.06846,0 48.70687,-1.37203 66.54319,-4.80209 10.29018,-2.05804 15.77828,-4.11607 17.83632,-10.9762 l 9.60417,-31.55656 c -0.68601,31.55656 20.58037,47.33485 65.85718,47.33485 19.20835,0 37.73068,-0.68601 46.64884,-2.05804 8.91816,-1.37202 13.72025,-3.43006 15.77828,-10.29018 l 2.05804,-9.60418 c 9.60417,15.09227 30.87056,22.63841 63.11314,22.63841 34.30061,0 54.19497,-0.68601 59.68307,-2.74405 4.80208,-1.37202 7.54613,-4.11607 8.91816,-7.54613 0,-0.68602 0,-1.37203 0.68601,-2.05804 l 4.11607,-13.03424 c 0.68602,-2.05803 -0.68601,-3.43006 -3.43006,-3.43006 l -21.95239,1.37203 c -14.40626,0.68601 -26.06847,1.37202 -34.30062,1.37202 -15.77828,0 -26.06847,-1.37202 -32.24258,-3.43006 -8.91816,-3.43006 -13.03423,-9.60417 -12.34822,-19.89436 l 69.28725,-8.91816 c 30.87055,-4.11607 52.13693,-13.72024 62.42712,-28.81251 l -24.01044,80.26344 c -0.68601,1.37202 0,2.74405 0.68602,3.43006 0.68601,0.68601 2.05803,1.37202 4.80208,1.37202 h 28.81252 c 4.80209,0 6.86012,-2.74405 7.54614,-4.80208 l 25.38245,-88.49559 c 3.43006,-11.66221 13.72025,-17.15031 32.92859,-17.15031 17.15031,0 29.49853,0 37.73068,0.68601 0,0 0.68601,0 0.68601,0 1.37203,0 4.11608,-0.68601 6.17411,-4.11607 l 4.11608,-12.34823 c 0,-2.05804 0,-4.11608 -1.37203,-5.4881 z M 176.719,391.84674 c -8.91816,1.37203 -21.95239,2.05804 -38.41669,2.05804 -29.49853,0 -41.846747,-6.17411 -38.416686,-17.83632 2.744046,-8.23215 10.290186,-13.72024 22.638406,-15.09227 l 66.54319,-8.91815 z m 306.64751,-71.34528 c -2.74405,8.91816 -15.77829,15.09227 -39.10271,18.52234 l -55.56699,7.54613 1.37202,-4.80208 c 4.80209,-15.09228 10.9762,-24.69645 19.20835,-30.18455 8.23214,-5.48809 21.95239,-8.23214 41.16074,-8.23214 25.38245,0.68601 36.35865,6.17411 32.92859,17.1503 z"
   id="path2"
   inkscape:connector-curvature="0"
   style="fill:#83b81a;stroke-width:6.86012316"
   inkscape:export-filename="G:\Users\suitedoalex\sites\acer-logo-4.png"
   inkscape:export-xdpi="66.101288"
   inkscape:export-ydpi="66.101288" />
</svg>