<?xml version="1.0" encoding="UTF-8" standalone="no"?>
<!-- Created with Inkscape (http://www.inkscape.org/) -->

<svg
   xmlns:dc="http://purl.org/dc/elements/1.1/"
   xmlns:cc="http://creativecommons.org/ns#"
   xmlns:rdf="http://www.w3.org/1999/02/22-rdf-syntax-ns#"
   xmlns:svg="http://www.w3.org/2000/svg"
   xmlns="http://www.w3.org/2000/svg"
   xmlns:sodipodi="http://sodipodi.sourceforge.net/DTD/sodipodi-0.dtd"
   xmlns:inkscape="http://www.inkscape.org/namespaces/inkscape"
   width="500"
   height="105"
   viewBox="0 0 499.99996 105"
   id="svg2"
   version="1.1"
   inkscape:version="0.92.2 (5c3e80d, 2017-08-06)"
   sodipodi:docname="lenovo-logo.svg">
  <defs
     id="defs4" />
  <sodipodi:namedview
     id="base"
     pagecolor="#ffffff"
     bordercolor="#666666"
     borderopacity="1.0"
     inkscape:pageopacity="0.0"
     inkscape:pageshadow="2"
     inkscape:zoom="0.35"
     inkscape:cx="823.71369"
     inkscape:cy="184.89948"
     inkscape:document-units="px"
     inkscape:current-layer="layer1"
     showgrid="false"
     fit-margin-top="5"
     fit-margin-left="10"
     fit-margin-right="10"
     fit-margin-bottom="5"
     units="px"
     inkscape:window-width="1600"
     inkscape:window-height="837"
     inkscape:window-x="-8"
     inkscape:window-y="-8"
     inkscape:window-maximized="1" />
  <metadata
     id="metadata7">
    <rdf:RDF>
      <cc:Work
         rdf:about="">
        <dc:format>image/svg+xml</dc:format>
        <dc:type
           rdf:resource="http://purl.org/dc/dcmitype/StillImage" />
        <dc:title />
      </cc:Work>
    </rdf:RDF>
  </metadata>
  <g
     inkscape:label="Layer 1"
     inkscape:groupmode="layer"
     id="layer1"
     transform="translate(-137.8498,-390.54123)">
    <g
       id="g23944"
       transform="matrix(1.5421564,0,0,1.5421564,148.7686,-598.51789)"
       inkscape:export-filename="C:\Users\suitedoalex\sites\lenovo-logo-14.png"
       inkscape:export-xdpi="9.69697"
       inkscape:export-ydpi="9.69697">
      <g
         id="g13605"
         transform="matrix(0,2.7249422,2.7249422,0,129.07155,656.47605)"
         style="fill:#e60012;fill-opacity:1">
        <path
           d="m 0,0 c 0,-2.127 0.986,-4.546 2.96,-6.024 l -0.004,0.001 10e-4,-0.001 -2.647,0.001 0,-5.073 18.474,0 0,5.072 -10.512,0 c -1.892,0 -3.903,1.467 -3.903,4.183 0,2.099 1.46,4.271 3.903,4.271 l 10.512,0 0,5.073 -11.452,0 C 3.083,7.503 0,4.463 0,0"
           style="fill:#e60012;fill-opacity:1;fill-rule:nonzero;stroke:none"
           id="path13607"
           inkscape:connector-curvature="0" />
      </g>
      <g
         id="g13609"
         transform="matrix(0,2.7249422,2.7249422,0,247.76404,657.32296)"
         style="fill:#e60012;fill-opacity:1">
        <path
           d="M 0,0 12.584,-4.586 0,-9.172 l 0,-5.795 18.468,7.601 0,5.559 L 0,5.794 0,0 Z"
           style="fill:#e60012;fill-opacity:1;fill-rule:nonzero;stroke:none"
           id="path13611"
           inkscape:connector-curvature="0" />
      </g>
      <g
         id="g13613"
         transform="matrix(0,2.7249422,2.7249422,0,57.56743,672.48808)"
         style="fill:#e60012;fill-opacity:1">
        <path
           d="m 0,0 c -1.16,0.864 -1.841,2.24 -1.841,3.902 0,1.828 1.044,3.215 2.585,3.932 L 4.421,-1.029 C 2.534,-1.271 1.058,-0.788 0,0 M 7.228,9.746 C 8.808,7.611 9.185,6.391 9.185,4.444 9.185,2.692 8.641,1.32 7.687,0.353 L 2.307,13.322 C 0.302,13.039 -1.489,12.278 -2.851,11.107 -4.83,9.403 -5.877,6.881 -5.877,3.81 c 0,-5.578 4.115,-9.784 9.55,-9.784 5.576,0 9.549,4.216 9.549,10.343 0,3.433 -1.627,6.943 -3.528,8.585 L 7.228,9.746 Z"
           style="fill:#e60012;fill-opacity:1;fill-rule:nonzero;stroke:none"
           id="path13615"
           inkscape:connector-curvature="0" />
      </g>
      <g
         id="g13617"
         transform="matrix(0,2.7249422,2.7249422,0,39.971116,694.96858)"
         style="fill:#e60012;fill-opacity:1">
        <path
           d="m 0,0 0,-11.53 -19.341,0 0,-5.142 23.999,0 L 4.658,0 0,0 Z"
           style="fill:#e60012;fill-opacity:1;fill-rule:nonzero;stroke:none"
           id="path13619"
           inkscape:connector-curvature="0" />
      </g>
      <g
         id="g13621"
         transform="matrix(0,2.7249422,2.7249422,0,288.37412,668.31919)"
         style="fill:#e60012;fill-opacity:1">
        <path
           d="m 0,0 c 0,-2.833 2.147,-4.89 5.201,-4.89 2.916,0 5.201,2.179 5.201,4.958 0,2.834 -2.206,4.89 -5.201,4.89 C 2.285,4.958 0,2.78 0,0 m 14.749,0 c 0,-5.548 -4.133,-9.895 -9.548,-9.895 -5.354,0 -9.548,4.377 -9.548,9.963 0,5.548 4.133,9.894 9.548,9.894 5.353,0 9.548,-4.376 9.548,-9.962"
           style="fill:#e60012;fill-opacity:1;fill-rule:nonzero;stroke:none"
           id="path13623"
           inkscape:connector-curvature="0" />
      </g>
      <g
         id="g13625"
         transform="matrix(0,2.7249422,2.7249422,0,181.94605,668.31919)"
         style="fill:#e60012;fill-opacity:1">
        <path
           d="m 0,0 c 0,-2.833 2.147,-4.889 5.201,-4.889 2.916,0 5.201,2.178 5.201,4.958 0,2.833 -2.206,4.889 -5.201,4.889 C 2.285,4.958 0,2.78 0,0 m 14.749,0 c 0,-5.548 -4.133,-9.894 -9.548,-9.894 -5.354,0 -9.548,4.376 -9.548,9.963 0,5.547 4.133,9.894 9.548,9.894 5.353,0 9.548,-4.377 9.548,-9.963"
           style="fill:#e60012;fill-opacity:1;fill-rule:nonzero;stroke:none"
           id="path13627"
           inkscape:connector-curvature="0" />
      </g>
    </g>
    <rect
       style="fill:#e60012;fill-opacity:1;fill-rule:evenodd;stroke-width:0.93140829"
       id="rect71"
       width="579.99994"
       height="167.14285"
       x="736.42126"
       y="299.82693"
       inkscape:export-filename="C:\Users\suitedoalex\sites\lenovo-logo-15.png"
       inkscape:export-xdpi="8.2758627"
       inkscape:export-ydpi="8.2758627" />
    <g
       id="g23944-9-8"
       transform="matrix(1.5421564,0,0,1.5421564,790.1972,-658.16076)"
       style="fill:#ffffff"
       inkscape:export-filename="C:\Users\suitedoalex\sites\lenovo-logo-15.png"
       inkscape:export-xdpi="8.2758627"
       inkscape:export-ydpi="8.2758627">
      <g
         id="g13605-7-0"
         transform="matrix(0,2.7249422,2.7249422,0,129.07155,656.47605)"
         style="fill:#ffffff;fill-opacity:1">
        <path
           d="M 0,0 C 0,-2.127 0.986,-4.546 2.96,-6.024 L 2.956,-6.023 2.957,-6.024 0.31,-6.023 v -5.073 h 18.474 v 5.072 H 8.272 c -1.892,0 -3.903,1.467 -3.903,4.183 0,2.099 1.46,4.271 3.903,4.271 H 18.784 V 7.503 H 7.332 C 3.083,7.503 0,4.463 0,0"
           style="fill:#ffffff;fill-opacity:1;fill-rule:nonzero;stroke:none"
           id="path13607-5-8"
           inkscape:connector-curvature="0" />
      </g>
      <g
         id="g13609-1-9"
         transform="matrix(0,2.7249422,2.7249422,0,247.76404,657.32296)"
         style="fill:#ffffff;fill-opacity:1">
        <path
           d="M 0,0 12.584,-4.586 0,-9.172 v -5.795 l 18.468,7.601 v 5.559 L 0,5.794 Z"
           style="fill:#ffffff;fill-opacity:1;fill-rule:nonzero;stroke:none"
           id="path13611-2-9"
           inkscape:connector-curvature="0" />
      </g>
      <g
         id="g13613-2-7"
         transform="matrix(0,2.7249422,2.7249422,0,57.56743,672.48808)"
         style="fill:#ffffff;fill-opacity:1">
        <path
           d="m 0,0 c -1.16,0.864 -1.841,2.24 -1.841,3.902 0,1.828 1.044,3.215 2.585,3.932 L 4.421,-1.029 C 2.534,-1.271 1.058,-0.788 0,0 M 7.228,9.746 C 8.808,7.611 9.185,6.391 9.185,4.444 9.185,2.692 8.641,1.32 7.687,0.353 L 2.307,13.322 C 0.302,13.039 -1.489,12.278 -2.851,11.107 -4.83,9.403 -5.877,6.881 -5.877,3.81 c 0,-5.578 4.115,-9.784 9.55,-9.784 5.576,0 9.549,4.216 9.549,10.343 0,3.433 -1.627,6.943 -3.528,8.585 z"
           style="fill:#ffffff;fill-opacity:1;fill-rule:nonzero;stroke:none"
           id="path13615-3-1"
           inkscape:connector-curvature="0" />
      </g>
      <g
         id="g13617-5-2"
         transform="matrix(0,2.7249422,2.7249422,0,39.971116,694.96858)"
         style="fill:#ffffff;fill-opacity:1">
        <path
           d="m 0,0 v -11.53 h -19.341 v -5.142 H 4.658 V 0 Z"
           style="fill:#ffffff;fill-opacity:1;fill-rule:nonzero;stroke:none"
           id="path13619-8-3"
           inkscape:connector-curvature="0" />
      </g>
      <g
         id="g13621-5-9"
         transform="matrix(0,2.7249422,2.7249422,0,288.37412,668.31919)"
         style="fill:#ffffff;fill-opacity:1">
        <path
           d="m 0,0 c 0,-2.833 2.147,-4.89 5.201,-4.89 2.916,0 5.201,2.179 5.201,4.958 0,2.834 -2.206,4.89 -5.201,4.89 C 2.285,4.958 0,2.78 0,0 m 14.749,0 c 0,-5.548 -4.133,-9.895 -9.548,-9.895 -5.354,0 -9.548,4.377 -9.548,9.963 0,5.548 4.133,9.894 9.548,9.894 5.353,0 9.548,-4.376 9.548,-9.962"
           style="fill:#ffffff;fill-opacity:1;fill-rule:nonzero;stroke:none"
           id="path13623-7-3"
           inkscape:connector-curvature="0" />
      </g>
      <g
         id="g13625-9-6"
         transform="matrix(0,2.7249422,2.7249422,0,181.94605,668.31919)"
         style="fill:#ffffff;fill-opacity:1">
        <path
           d="m 0,0 c 0,-2.833 2.147,-4.889 5.201,-4.889 2.916,0 5.201,2.178 5.201,4.958 0,2.833 -2.206,4.889 -5.201,4.889 C 2.285,4.958 0,2.78 0,0 m 14.749,0 c 0,-5.548 -4.133,-9.894 -9.548,-9.894 -5.354,0 -9.548,4.376 -9.548,9.963 0,5.547 4.133,9.894 9.548,9.894 5.353,0 9.548,-4.377 9.548,-9.963"
           style="fill:#ffffff;fill-opacity:1;fill-rule:nonzero;stroke:none"
           id="path13627-9-5"
           inkscape:connector-curvature="0" />
      </g>
    </g>
    <rect
       style="fill:#f9f9f9;fill-rule:evenodd"
       id="rect124"
       width="843.38196"
       height="521.23871"
       x="1398.5203"
       y="285.4295"
       inkscape:export-filename="C:\Users\suitedoalex\sites\lenovo-logo-16.png"
       inkscape:export-xdpi="398.39999"
       inkscape:export-ydpi="398.39999" />
    <g
       id="g23944-9-3"
       transform="matrix(1.5421564,0,0,1.5421564,1581.1301,-495.51026)"
       inkscape:export-filename="C:\Users\suitedoalex\sites\lenovo-logo-16.png"
       inkscape:export-xdpi="398.39999"
       inkscape:export-ydpi="398.39999">
      <g
         id="g13605-7-9"
         transform="matrix(0,2.7249422,2.7249422,0,129.07155,656.47605)"
         style="fill:#e60012;fill-opacity:1">
        <path
           d="M 0,0 C 0,-2.127 0.986,-4.546 2.96,-6.024 L 2.956,-6.023 2.957,-6.024 0.31,-6.023 v -5.073 h 18.474 v 5.072 H 8.272 c -1.892,0 -3.903,1.467 -3.903,4.183 0,2.099 1.46,4.271 3.903,4.271 H 18.784 V 7.503 H 7.332 C 3.083,7.503 0,4.463 0,0"
           style="fill:#e60012;fill-opacity:1;fill-rule:nonzero;stroke:none"
           id="path13607-5-2"
           inkscape:connector-curvature="0" />
      </g>
      <g
         id="g13609-1-7"
         transform="matrix(0,2.7249422,2.7249422,0,247.76404,657.32296)"
         style="fill:#e60012;fill-opacity:1">
        <path
           d="M 0,0 12.584,-4.586 0,-9.172 v -5.795 l 18.468,7.601 v 5.559 L 0,5.794 Z"
           style="fill:#e60012;fill-opacity:1;fill-rule:nonzero;stroke:none"
           id="path13611-2-0"
           inkscape:connector-curvature="0" />
      </g>
      <g
         id="g13613-2-6"
         transform="matrix(0,2.7249422,2.7249422,0,57.56743,672.48808)"
         style="fill:#e60012;fill-opacity:1">
        <path
           d="m 0,0 c -1.16,0.864 -1.841,2.24 -1.841,3.902 0,1.828 1.044,3.215 2.585,3.932 L 4.421,-1.029 C 2.534,-1.271 1.058,-0.788 0,0 M 7.228,9.746 C 8.808,7.611 9.185,6.391 9.185,4.444 9.185,2.692 8.641,1.32 7.687,0.353 L 2.307,13.322 C 0.302,13.039 -1.489,12.278 -2.851,11.107 -4.83,9.403 -5.877,6.881 -5.877,3.81 c 0,-5.578 4.115,-9.784 9.55,-9.784 5.576,0 9.549,4.216 9.549,10.343 0,3.433 -1.627,6.943 -3.528,8.585 z"
           style="fill:#e60012;fill-opacity:1;fill-rule:nonzero;stroke:none"
           id="path13615-3-8"
           inkscape:connector-curvature="0" />
      </g>
      <g
         id="g13617-5-0"
         transform="matrix(0,2.7249422,2.7249422,0,39.971116,694.96858)"
         style="fill:#e60012;fill-opacity:1">
        <path
           d="m 0,0 v -11.53 h -19.341 v -5.142 H 4.658 V 0 Z"
           style="fill:#e60012;fill-opacity:1;fill-rule:nonzero;stroke:none"
           id="path13619-8-2"
           inkscape:connector-curvature="0" />
      </g>
      <g
         id="g13621-5-5"
         transform="matrix(0,2.7249422,2.7249422,0,288.37412,668.31919)"
         style="fill:#e60012;fill-opacity:1">
        <path
           d="m 0,0 c 0,-2.833 2.147,-4.89 5.201,-4.89 2.916,0 5.201,2.179 5.201,4.958 0,2.834 -2.206,4.89 -5.201,4.89 C 2.285,4.958 0,2.78 0,0 m 14.749,0 c 0,-5.548 -4.133,-9.895 -9.548,-9.895 -5.354,0 -9.548,4.377 -9.548,9.963 0,5.548 4.133,9.894 9.548,9.894 5.353,0 9.548,-4.376 9.548,-9.962"
           style="fill:#e60012;fill-opacity:1;fill-rule:nonzero;stroke:none"
           id="path13623-7-9"
           inkscape:connector-curvature="0" />
      </g>
      <g
         id="g13625-9-4"
         transform="matrix(0,2.7249422,2.7249422,0,181.94605,668.31919)"
         style="fill:#e60012;fill-opacity:1">
        <path
           d="m 0,0 c 0,-2.833 2.147,-4.889 5.201,-4.889 2.916,0 5.201,2.178 5.201,4.958 0,2.833 -2.206,4.889 -5.201,4.889 C 2.285,4.958 0,2.78 0,0 m 14.749,0 c 0,-5.548 -4.133,-9.894 -9.548,-9.894 -5.354,0 -9.548,4.376 -9.548,9.963 0,5.547 4.133,9.894 9.548,9.894 5.353,0 9.548,-4.377 9.548,-9.963"
           style="fill:#e60012;fill-opacity:1;fill-rule:nonzero;stroke:none"
           id="path13627-9-6"
           inkscape:connector-curvature="0" />
      </g>
    </g>
    <text
       xml:space="preserve"
       style="font-style:normal;font-weight:normal;font-size:42.66666794px;line-height:1.25;font-family:sans-serif;letter-spacing:0px;word-spacing:0px;fill:#000000;fill-opacity:1;stroke:none"
       x="366.14426"
       y="853.13525"
       id="text179"><tspan
         sodipodi:role="line"
         id="tspan177"
         x="366.14426"
         y="853.13525">LOGODOWNLOAD.ORG</tspan></text>
  </g>
</svg>
